<?xml version="1.0" encoding="utf-8"?>
<!-- Generator: Adobe Illustrator 20.1.0, SVG Export Plug-In . SVG Version: 6.00 Build 0)  -->
<svg version="1.1" id="Layer_1" xmlns="http://www.w3.org/2000/svg" xmlns:xlink="http://www.w3.org/1999/xlink" x="0px" y="0px"
	 viewBox="0 0 1190 200" style="enable-background:new 0 0 1190 200;" xml:space="preserve">
<style type="text/css">
	.st0{fill:#FFFFFF;}
</style>
<polygon class="st0" points="136.6,75.2 169.2,134.5 207.1,134.5 239.2,75.1 255.3,75.2 255.3,64.4 206.9,64.4 206.9,75.1 
	220.9,75.1 197.5,118.4 173.8,75.2 190.8,75.1 190.8,64.4 120.5,64.4 120.5,75.2 "/>
<path class="st0" d="M552.9,75.1l0-10.7l64.8,0v10.7h-16.1v48.5h15c13.9,0,23-9.2,23-21.6h10.7v32.5l-97.3,0v-10.9h16.3l0-48.5
	H552.9z"/>
<path class="st0" d="M395.8,62.9c-32.5,0-49.8,16.2-49.8,36.6c0,20.6,16.6,37.1,50,37.1c33.4,0,49.8-16.5,49.8-37.1
	C445.8,79.1,428.3,62.9,395.8,62.9 M395.4,125.5c-11.9-0.2-17.1-13.3-16.9-26.4c0.2-13.5,6.7-25.3,17.8-25.1
	c11.1,0.2,17,12.2,16.8,25.7C412.9,112.4,407.7,125.7,395.4,125.5"/>
<polygon class="st0" points="760.7,75.2 793.3,134.5 831.2,134.5 863.3,75.1 879.4,75.2 879.4,64.4 831,64.4 831,75.1 844.9,75.1 
	821.6,118.4 797.9,75.2 814.9,75.1 814.8,64.4 744.6,64.4 744.6,75.2 "/>
<path class="st0" d="M1019.9,62.9c-32.5,0-49.8,16.2-49.8,36.6c0,20.6,16.6,37.1,50,37.1c33.4,0,49.8-16.5,49.8-37.1
	C1069.9,79.1,1052.4,62.9,1019.9,62.9 M1019.5,125.5c-11.9-0.2-17.1-13.3-16.9-26.4c0.2-13.5,6.7-25.3,17.8-25.1
	c11.1,0.2,17,12.2,16.8,25.7C1037,112.4,1031.8,125.7,1019.5,125.5"/>
</svg>
